<svg width="32" height="32" viewBox="0 0 32 32" fill="none" xmlns="http://www.w3.org/2000/svg">
<rect width="32" height="32" rx="16" fill="#F0EFE7"/>
<path d="M10.296 18H8.784V8.62H10.926L13.068 13.772L13.894 16.012H14.006L14.818 13.772L16.918 8.62H19.06V18H17.562V12.456L17.618 10.888H17.52L16.932 12.456L14.832 17.44H13.012L10.898 12.456L10.338 10.888H10.212L10.296 12.456V18Z" fill="black"/>
<path d="M19.71 24.14C17.162 24.14 16.182 22.698 16.182 20.584V20.192H17.778V20.696C17.778 22.096 18.058 22.684 19.668 22.684C21.264 22.684 21.544 22.096 21.544 20.696V14.62H23.154V20.584C23.154 22.698 22.146 24.14 19.71 24.14Z" fill="black"/>
</svg>
